<svg xmlns="http://www.w3.org/2000/svg" width="400" height="402.21"><path fill-rule="evenodd" d="M188.749 1.477c-6.755 2.533-10.307 5.285-23.043 17.85L153.51 31.358l75.016 75.205c83.374 83.584 80.135 79.768 80.183 94.469.049 15.051 3.651 10.795-80.053 94.591l-75.098 75.18 13.075 12.914c18.623 18.394 31.156 22.47 47.226 15.359 7.734-3.422 180.349-175.802 183.857-183.606 3.135-6.973 3.135-21.757 0-28.73-3.185-7.084-174.728-178.956-182.719-183.069-6.723-3.46-19.929-4.564-26.248-2.194m-68.307 70.991c-4.651 2-112.459 109.047-117.251 116.422-4.599 7.079-4.599 17.351 0 24.43 5.104 7.856 112.64 114.455 117.492 116.468 14.708 6.101 15.015 5.873 80.004-59.315 66.315-66.518 65.52-65.373 56.237-80.97-4.132-6.943-113.022-115.041-117.938-117.081-5.166-2.142-13.504-2.122-18.544.046"/></svg>